<svg version="1.1" id="Layer_1" xmlns="http://www.w3.org/2000/svg" x="0" y="0" viewBox="0 0 115.3 115.3" xml:space="preserve"><style>.st1{fill-rule:evenodd;clip-rule:evenodd;fill:#003b57}.st5{fill:#179caa}.st6{fill:#01b4c0}</style><g><g><g><circle cx="57.5" cy="57.4" r="57.1" fill="transparent"/></g></g><g id="Page-1_8_"><g><g><path id="Combined-Shape_6_" class="st1" d="M58.7 85.1V64.8l26.6-5.1v25.8h-.1c.1.3.1.6.1.9 0 2.8-2.2 5-5 5s-5-2.3-5-5c0-2.8 2.2-5 5-5 1.1 0 2.1.4 3 1v-15L61 72v16.4h-.1c0 .2.1.5.1.7 0 2.8-2.2 5-5 5s-5-2.3-5-5c0-2.8 2.2-5 5-5 .9.1 1.9.4 2.7 1z"/><path id="Combined-Shape-Copy-5_1_" class="st1" d="M30 56.2V36.8c.9-.4 1.6-.6 2.2-.8.3 0 8.1-1.2 16.1-.9v5.2c-7.6 0-12.9.6-16.1 1.7v17.7h-.1c0 .2.1.5.1.7 0 2.8-2.2 5-5 5s-5-2.3-5-5 2.2-5 5-5c1-.1 2 .3 2.8.8z"/><path d="M36 25.4v-1.6l.6-.6c.8-.6 1.9-.7 2.8-.3 1.4.6 2 2.1 1.3 3.4-.8 1.5-3.2 2.8-4.2 3.3l-.6.3c.1.1.1-2.6.1-4.5v4.5l-.6-.3c-1-.5-3.4-1.7-4.1-3.3-.6-1.3 0-2.8 1.3-3.4.9-.4 2-.3 2.8.3l.6.6v1.6z" fill="#fcd6d3"/><path id="Combined-Shape-Copy-7_1_" d="M65.2 22.2v-.9c.1-.1.2-.3.3-.4.5-.4 1.1-.4 1.6-.2.8.4 1.1 1.3.8 2.1-.4.9-1.8 1.7-2.4 2-.1.1-.2.1-.4.2.1-.1.1-1.7.1-2.8v2.7c-.1 0-.2-.1-.4-.2-.6-.3-1.9-1-2.4-2-.4-.8 0-1.7.8-2.1.5-.2 1.2-.2 1.6.2.1.1.3.2.3.4.1 0 .1.4.1 1z" fill="#003b57"/><path id="Combined-Shape-Copy-6_1_" d="M82.1 32.9v-2.5c.2-.4.5-.7.9-.9 1.2-.9 2.7-1.1 4-.5 1.9 1 2.8 3.4 1.9 5.5-1.1 2.5-4.5 4.5-5.9 5.2-.3.2-.6.3-.9.4v-7.2 7.2c-.3-.1-.6-.3-.9-.4-1.4-.8-4.9-2.8-5.9-5.2-.9-2.1 0-4.5 1.9-5.5 1.3-.7 2.9-.5 4 .5l.9.9v2.5z" fill="#f99b9a"/></g></g></g><path class="st5" d="M21.3 43.2c-1 .4-1.8 1.2-2.2 2.2-.1.3-.5.3-.6 0-.4-1-1.3-1.9-2.3-2.3-.3-.1-.2-.5 0-.6 1-.4 1.8-1.2 2.2-2.2.1-.3.5-.3.6 0 .4 1 1.3 1.9 2.3 2.3.3.1.3.5 0 .6"/><path class="st5" d="M94.5 51.5c-1 .4-1.8 1.2-2.2 2.2-.1.3-.5.3-.6 0-.4-1-1.3-1.9-2.3-2.3-.3-.1-.2-.5 0-.6 1-.4 1.8-1.2 2.2-2.2.1-.3.5-.3.6 0 .4 1 1.3 1.9 2.3 2.3.3.2.3.5 0 .6"/><path class="st6" d="M47.5 75.1c-1.2.5-2.2 1.5-2.6 2.6-.1.3-.6.3-.7 0-.5-1.2-1.6-2.3-2.8-2.9-.3-.1-.3-.6 0-.7 1.2-.5 2.2-1.5 2.6-2.6.1-.3.6-.3.7 0 .5 1.2 1.6 2.3 2.9 2.9.2.1.2.6-.1.7"/><path class="st6" d="M65.4 47.1c-1.7.7-3 2-3.7 3.7-.2.4-.8.5-1 0-.8-1.7-2.2-3.2-4-4-.4-.2-.4-.8 0-1 1.7-.7 3-2 3.7-3.7.2-.4.8-.5 1 0 .8 1.7 2.2 3.2 4 4 .5.2.5.8 0 1"/></g></svg>