<svg xmlns="http://www.w3.org/2000/svg" viewBox="0 0 114.17 114.17"><defs><style>.cls-2{fill:none}.cls-3{fill:#003b57}.cls-4{fill:#f87e7e}.cls-5{fill:#f99b9a}.cls-6{fill:#fcd6d3}</style></defs><g id="Layer_2" data-name="Layer 2"><g id="Layer_1-2" data-name="Layer 1"><circle cx="57.09" cy="57.09" r="57.09" fill="transparent"/><path class="cls-2" d="M42.6 87.42c2.74 2 6.47 4 8.6 1.51a3.18 3.18 0 00.4-4 3.93 3.93 0 00-2.91-1.38c-2.54-.15-4.71 1.23-7 3a6.76 6.76 0 00.91.87z"/><path class="cls-2" d="M34.81 75a2.56 2.56 0 00-.39 0 3.28 3.28 0 00-2.87 2.29c-1.12 3 2.35 5.39 5.46 6.81a6.31 6.31 0 001.13.43c.47-2.89.64-5.46-.72-7.61A4 4 0 0034.81 75z"/><path class="cls-3" d="M56.2 62.92l-1.29-.76a37.43 37.43 0 019.14-12.66c7 8.28 13.85 2.92 13.85 2.92-3.83-6-9.53-5.11-12.41-4.12a26.68 26.68 0 0110-4.81 9.83 9.83 0 01-.1-1.34v-.68a28.7 28.7 0 00-11.82 5.81 36 36 0 00-7.31 8.31 109.53 109.53 0 003.47-15.84 3.91 3.91 0 01-.69-1.4 4.15 4.15 0 01-.12-.85 3.88 3.88 0 01-.35.78 3.43 3.43 0 01-.82.95 93.58 93.58 0 01-5.39 21.42l-.6-.35a22.9 22.9 0 001.07-10.61 12.44 12.44 0 00-6.13-9.27 12.07 12.07 0 00-3.7-1.28c0 .26.09.51.12.77a11 11 0 010 1.28 10.18 10.18 0 012.58 1A10.51 10.51 0 0150.83 50a16 16 0 01.17 2.3c-8-4.87-13.86 3-13.86 3 8.13 4.24 12.47-.09 13.86-1.94a23.45 23.45 0 01-1 5.9l-3.08-1.82L40.66 79a9 9 0 00-1.24-3.35 6.25 6.25 0 00-4.23-3 5.53 5.53 0 00-5.86 3.77c-.78 2.14-.95 6.26 6.69 9.76.23.11.47.21.73.31a16.48 16.48 0 01-3.58 2.14 8.71 8.71 0 01-6.68.24 1.18 1.18 0 10-.93 2.17 9.53 9.53 0 003.79.74 12.18 12.18 0 004.72-1 14.79 14.79 0 002.37-1.24l-6.95 7.36 7 4.13 1.71-11.71A14.62 14.62 0 0041.7 99a1.18 1.18 0 101.77-1.56 12.19 12.19 0 01-2.89-8.65l.61.48c3.15 2.34 5.59 3.12 7.46 3.12a5.59 5.59 0 004.32-2 5.52 5.52 0 00.49-7 6.26 6.26 0 00-4.63-2.28 9.07 9.07 0 00-3.71.56l16.06-16L58.1 64c2.4-1.55 5.61-2.68 8.46-1.88L65.62 60c-3.41-.4-6.94 1.11-9.42 2.92zM38.14 84.54a6.31 6.31 0 01-1.14-.43c-3.11-1.42-6.58-3.76-5.46-6.81a3.28 3.28 0 012.88-2.3 2.56 2.56 0 01.39 0 4 4 0 012.61 1.89c1.36 2.19 1.19 4.76.72 7.65zm10.55-.94A3.93 3.93 0 0151.6 85a3.18 3.18 0 01-.4 4c-2.13 2.44-5.86.53-8.6-1.51a6.76 6.76 0 01-.92-.79c2.32-1.87 4.47-3.25 7.01-3.1z"/><path class="cls-4" d="M43.11 39.91c0-.26-.07-.51-.12-.77a9.76 9.76 0 00-14.39-6.8L22.24 37a.46.46 0 00.24.84l6.16.48a.22.22 0 01.08.42l-6.55 3.11a.32.32 0 00.08.6l7.4 1.55a.41.41 0 01.11.76l-5.52 2.81a.37.37 0 00.05.69l6.49 2.09a9.77 9.77 0 004.48.17 9.9 9.9 0 007.88-9.29 11 11 0 00-.03-1.32z"/><path class="cls-4" d="M75.44 43.49a9.8 9.8 0 009.92 8.43 10.09 10.09 0 003.69-.82l6.77-4a.47.47 0 00-.15-.87l-6.09-1.07a.22.22 0 010-.42l6.82-2.46a.32.32 0 000-.61l-7.22-2.25a.41.41 0 010-.77l5.77-2.26a.38.38 0 000-.7L88.62 33a9.78 9.78 0 00-13.25 8.48v.68a9.83 9.83 0 00.07 1.33z"/><path class="cls-5" d="M61.55 18.92l-.73 5.26a3.61 3.61 0 011.14.43 3.77 3.77 0 011.07.95l4.29-3.27a4.14 4.14 0 01.94-.59 3.71 3.71 0 00.42-.54 3.89 3.89 0 10-6.7-4 4 4 0 00-.35.79 4.13 4.13 0 01-.08.97z"/><path class="cls-5" d="M58.55 38.28a3.88 3.88 0 00.35-.78 3.9 3.9 0 01.09-1l.71-5.07a3.68 3.68 0 01-1.5-.49 3.78 3.78 0 01-1-.85l-4 3.05a3.74 3.74 0 01-1 .62 3.65 3.65 0 00-.41.54 3.88 3.88 0 005.88 4.91 3.43 3.43 0 00.88-.93z"/><path class="cls-5" d="M69.05 29l-5.31-.74a3.6 3.6 0 01-.48 1.39 3.94 3.94 0 01-.77.9l3.23 4.23a3.93 3.93 0 01.59.94 3.71 3.71 0 00.54.42 3.9 3.9 0 004-6.71 3.62 3.62 0 00-.79-.34 3.9 3.9 0 01-1.01-.09z"/><path class="cls-5" d="M51.44 26.46l5 .7a3.78 3.78 0 01.45-1.24 3.68 3.68 0 011-1.13l-3.1-4.07a3.88 3.88 0 01-.61-1 3.33 3.33 0 00-.55-.42 3.9 3.9 0 00-4 6.71 4.15 4.15 0 00.78.35 3.66 3.66 0 011.03.1z"/><path class="cls-5" d="M67.32 22.29L63 25.56a3.73 3.73 0 01.71 2.72l5.31.74a3.9 3.9 0 001 .09 3.57 3.57 0 00.85-.13 3.89 3.89 0 10-2-7.53 4.47 4.47 0 00-.64.25 4.14 4.14 0 00-.94.59z"/><path class="cls-5" d="M53.24 33.17l4-3.05a3.7 3.7 0 01-.78-3l-5-.7a3.66 3.66 0 00-.94-.08 3.17 3.17 0 00-.85.12 3.89 3.89 0 102 7.53 4.35 4.35 0 00.63-.25 3.74 3.74 0 001-.62z"/><path class="cls-5" d="M65.72 34.8l-3.23-4.23a3.73 3.73 0 01-2.8.89L59 36.53a3.9 3.9 0 00-.09 1 4.15 4.15 0 00.12.85 3.89 3.89 0 007.53-2 3.54 3.54 0 00-.25-.64 3.93 3.93 0 00-.59-.94z"/><path class="cls-5" d="M54.84 20.71l3.1 4.07a3.71 3.71 0 012.88-.6l.73-5.26a4.13 4.13 0 00.08-.93 4.24 4.24 0 00-.12-.86 3.9 3.9 0 00-7.54 2 3.8 3.8 0 00.26.63 3.88 3.88 0 00.61 1z"/><path class="cls-3" d="M62.49 30.57a3.94 3.94 0 00.77-.9 3.6 3.6 0 00.48-1.39A3.67 3.67 0 0062 24.61a3.61 3.61 0 00-1.14-.43 3.71 3.71 0 00-3.93 1.73 3.78 3.78 0 00-.45 1.24 3.7 3.7 0 00.78 3 3.78 3.78 0 001 .85 3.68 3.68 0 001.5.49 3.73 3.73 0 002.73-.92z"/><path class="cls-6" d="M90 68.05l-3.38-1.36L89.33 64a.62.62 0 00-.44-1.06H84.8l1.43-3.6a.71.71 0 00-.94-.92l-3.36 1.38v-3.86a.62.62 0 00-1.06-.44L78 58.38l-1.54-3.55a.71.71 0 00-1.31 0l-1.36 3.38-2.79-2.7a.62.62 0 00-1 .49v4l-3.6-1.42a.71.71 0 00-.92.93l.18.42.94 2.2.31.74H63a.62.62 0 00-.43 1.13l2.89 2.9-3.56 1.5a.71.71 0 000 1.31l3.38 1.37-2.72 2.74a.62.62 0 00.44 1.05h4.1l-1.42 3.6a.71.71 0 00.94.91L70 78v3.87a.61.61 0 001.05.43l2.9-2.88 1.53 3.55a.71.71 0 001.31 0l1.36-3.39 2.75 2.73a.62.62 0 001-.44v-4.14l3.6 1.43a.71.71 0 00.91-.94L85 74.86h3.9a.62.62 0 00.44-1.06l-2.89-2.9L90 69.36a.71.71 0 000-1.31zm-15.53 4.52a3.89 3.89 0 115.08-2.12 3.9 3.9 0 01-5.08 2.12z"/><path class="cls-4" d="M77.44 65.37a3.89 3.89 0 102.11 5.08 3.9 3.9 0 00-2.11-5.08z"/><path class="cls-5" d="M100 61.2a3.59 3.59 0 00-.8-2.1 3.49 3.49 0 00-.84-.74 3.58 3.58 0 00.78-.82 3.63 3.63 0 00.62-2.18 3.63 3.63 0 00-5.21-3.12c-2.09 1.09-3.7 4.32-4.3 5.66-.2.45-.32.75-.33.79s.15.32.4.76a19.12 19.12 0 002.29 3.35 10 10 0 001.1 1.2l.16.12.13.09.11.07.15.1.15.09.11.06h.16l.15.07.15.06h1.64L97 65h.75l.13-.07h.4l.15-.11.08-.07.06-.07.33-.68v-.05l.13-.15a3.64 3.64 0 00.57-.94 2 2 0 00.1-.26 3.65 3.65 0 00.18-1.3z"/><path class="cls-6" d="M38.63 29.14l.82.28.73-.45a19.27 19.27 0 003.18-2.52 9.27 9.27 0 001-1.22l.11-.17.09-.13v-.05a.41.41 0 00.07-.11c0-.05 0-.1.08-.16a.8.8 0 00.08-.16.54.54 0 000-.11v-.22l.06-.15c0-.06 0-.11.05-.16v-.38a.68.68 0 010-.14.76.76 0 000-.15v-.39a.45.45 0 000-.11v-.53a.46.46 0 010-.09v-.06s0-.09-.05-.14v-.57l-.07-.13v-.19l-.05-.07v-.06l-.06-.06-.12-.14-.07-.07-.07-.06-.05-.05-.07-.06-.16-.12a3.94 3.94 0 00-1-.5l-.26-.08a3.93 3.93 0 00-1.32-.1 3.57 3.57 0 00-2 .94 3.24 3.24 0 00-.68.89 3.33 3.33 0 00-.86-.72 3.58 3.58 0 00-2.22-.47 3.67 3.67 0 00-1.5.51 3.58 3.58 0 00-1.25 4.9c.88 1.64 4.21 3.03 5.59 3.53z"/><path class="cls-4" d="M77.64 29l.82.25a19.2 19.2 0 004 .68 9.18 9.18 0 001.6-.05h1.18l.16-.06.15-.07.11-.05.34-.4.11-.08.13-.1.09-.07.08-.07a.6.6 0 00.08-.08l.11-.12.07-.08a.35.35 0 01.05-.08v-.18l.07-.13v-.06a.2.2 0 000-.08.21.21 0 010-.06v-.2a.92.92 0 010-.09v-.28a.37.37 0 010-.09v-.06a.29.29 0 010-.09V27a.24.24 0 010-.08v-.24a.37.37 0 000-.11.28.28 0 000-.09v-.22a1.34 1.34 0 000-.2 4 4 0 00-.28-1.06c0-.08-.07-.16-.12-.25a3.6 3.6 0 00-.81-1 3.58 3.58 0 00-2.07-.89 3.49 3.49 0 00-1.12.09 3.3 3.3 0 000-1.13 3.62 3.62 0 00-1.13-2 3.79 3.79 0 00-1.39-.77 3.58 3.58 0 00-4.47 2.35c-.68 2.25.52 5.66 1.06 7 1.03.28 1.16.6 1.18.6z"/></g></g></svg>