<svg xmlns="http://www.w3.org/2000/svg" viewBox="0 0 114.17 114.17"><defs><style>.cls-2{fill:#003b57}</style></defs><g id="Layer_2" data-name="Layer 2"><g id="Layer_1-2" data-name="Layer 1"><circle cx="57.09" cy="57.09" r="57.09" fill="transparent"/><circle class="cls-2" cx="79.94" cy="42.07" r="3.51"/><path d="M87.85 42.07H73a1.21 1.21 0 00-.09-.2l-5.68-9.08a1.33 1.33 0 00-1.12-.63H45a1.33 1.33 0 00-1.17.7L39 41.94s0 .09-.05.13H24a1.61 1.61 0 00-1.6 1.61v34.75A1.61 1.61 0 0024 80h63.85a1.61 1.61 0 001.61-1.61V43.68a1.61 1.61 0 00-1.61-1.61z" fill="#01b4c0"/><circle class="cls-2" cx="55.94" cy="59.92" r="12.84"/><circle cx="55.94" cy="59.92" r="9.9" fill="#c5e3ea"/><rect class="cls-2" x="28" y="38.03" width="8.9" height="4.04" rx=".5"/><path class="cls-2" d="M22.42 48h7.64a2.44 2.44 0 012.44 2.44v19.69a3.37 3.37 0 01-3.37 3.37h-6.71V48z"/><path class="cls-2" d="M79.37 48h6.72a3.37 3.37 0 013.37 3.37v19.69A2.44 2.44 0 0187 73.5h-7.63V48z" transform="rotate(180 84.415 60.735)"/><path d="M45.48 41.67L47.9 36a.78.78 0 01.72-.48h14.56a.8.8 0 01.71.45l2.65 5.65a.78.78 0 01-.71 1.12H46.21a.78.78 0 01-.73-1.07z" fill="#179caa"/></g></g></svg>