<svg version="1.1" id="Layer_1" xmlns="http://www.w3.org/2000/svg" x="0" y="0" viewBox="0 0 115.3 115.3" xml:space="preserve"><style>.st1{fill-rule:evenodd;clip-rule:evenodd;fill:#f99b9a}.st8{opacity:.5;fill:#fbfbfb;enable-background:new}</style><g><circle cx="57.5" cy="57.4" r="57.1" fill="transparent"/></g><g id="Page-1_11_"><g><g transform="translate(0 2)"><g id="Compact_1_" transform="translate(0 1)"><path id="Rectangle_4_" class="st1" d="M27.9 30.6l4.5 3.4c.3.2.5.6.5 1v8.6c0 .7-.5 1.2-1.2 1.2h-4.5c-.7 0-1.2-.5-1.2-1.2v-12c0-.7.5-1.2 1.2-1.2.3 0 .5 0 .7.2z"/><path id="Combined-Shape_9_" d="M32 44.7v-8.8c0-.4-.2-.7-.4-.9l-4.1-3.3c-.2-.2-.5-.3-.7-.3-.2 0-.5.1-.6.2.1-.6.6-1.1 1.2-1.1.3 0 .5.1.7.2l4.5 3.3c.3.2.5.6.5 1v8.6c-.1.5-.6 1-1.1 1.1z" fill-rule="evenodd" clip-rule="evenodd" fill="#e5eef7" fill-opacity=".134"/><path id="Rectangle-Copy-4_1_" fill-rule="evenodd" clip-rule="evenodd" fill="#003b57" d="M24.9 39.9h9.3v9.6h-9.3z"/><path d="M23.7 48.3h11.5c.7 0 1.2.5 1.2 1.2v28.7c0 .7-.5 1.2-1.2 1.2H23.7c-.7 0-1.2-.5-1.2-1.2V49.5c0-.7.6-1.2 1.2-1.2z" fill-rule="evenodd" clip-rule="evenodd" fill="#fcd6d3"/><path d="M34.4 48.4h.8c.7 0 1.2.5 1.2 1.2v28.7c0 .7-.5 1.2-1.2 1.2H23.7c-.7 0-1.2-.5-1.2-1.2v-.8h10.7c.7 0 1.2-.5 1.2-1.2V48.4z" fill-rule="evenodd" clip-rule="evenodd" fill="#f99b9a" fill-opacity=".25"/></g><g id="Lipstick_1_"><g transform="translate(25)"><ellipse id="Oval_6_" cx="42.4" cy="54.4" rx="24.1" ry="24" fill-rule="evenodd" clip-rule="evenodd" fill="#c7d6ee"/><path d="M42.4 79.4c-13.9 0-25.1-11.2-25.1-25s11.3-25 25.1-25c13.9 0 25.1 11.2 25.1 25s-11.3 25-25.1 25zm0-47.9c-12.7 0-23.1 10.3-23.1 23s10.4 23 23.1 23c12.7 0 23.1-10.3 23.1-23s-10.4-23-23.1-23z" fill="#003b57"/></g><path class="st8" d="M34.9 51.5c-.3 0-.5-.1-.7-.3-.4-.4-.4-1 0-1.4l12-11.9c.4-.4 1-.4 1.4 0 .4.4.4 1 0 1.4l-12 11.9c-.2.2-.4.3-.7.3z" transform="translate(25)"/><path class="st8" d="M34.9 57.5c-.3 0-.5-.1-.7-.3-.4-.4-.4-1 0-1.4l12-11.9c.4-.4 1-.4 1.4 0 .4.4.4 1 0 1.4l-12 11.9c-.2.2-.4.3-.7.3z" transform="translate(25)"/><path class="st8" d="M43 55.5c-.3 0-.5-.1-.7-.3-.4-.4-.4-1 0-1.4l12-11.9c.4-.4 1-.4 1.4 0 .4.4.4 1 0 1.4l-12 11.9c-.2.2-.5.3-.7.3z" transform="translate(25)"/><path class="st1" d="M18.3 74.4h49.3v7H18.3z" transform="translate(25)"/></g></g></g></g></svg>