<svg xmlns="http://www.w3.org/2000/svg" viewBox="0 0 114.17 114.17"><defs><style>.cls-2{fill:#179caa}.cls-3{fill:#003b57}</style></defs><g id="Layer_2" data-name="Layer 2"><g id="Layer_1-2" data-name="Layer 1"><circle cx="57.09" cy="57.09" r="57.09" fill="transparent"/><path class="cls-2" d="M63.6 46.32H78v2.56A2.13 2.13 0 0175.85 51H65.73a2.13 2.13 0 01-2.13-2.13v-2.55z"/><path class="cls-3" d="M95.55 56.92a1 1 0 00-1-.88h-4.67a37.52 37.52 0 00-.28-4.24H51.18S47 80.16 70.24 81.24h.29C76.82 81 81.09 78.65 84 75.46a11.33 11.33 0 008.13-4c4.46-5.46 3.47-14.17 3.42-14.54zm-5 13.21a8.92 8.92 0 01-4.81 3c3.1-4.77 4-10.69 4.09-15.1h3.77c.15 2.26.14 8.28-3.02 12.1z"/><path d="M50.86 73.9c-4.81-7.75-4-18.59-2.79-25.46H78V35.56a9 9 0 00-9-9H31.8a2.62 2.62 0 00-2.62 2.62v16.34a2.92 2.92 0 002.92 2.92h3.72c.38 9.5.49 35.23-9.57 35.28v6.09H81.1V82.7s-22.68 3.39-30.24-8.8z" fill="#01b4c0"/><path d="M72.44 60.43a2.34 2.34 0 00-1.33.42V51h-1v9.88a2.39 2.39 0 00-1.39-.46 2.36 2.36 0 00-2.35 2.35v8a2.34 2.34 0 004.21 1.42 2.34 2.34 0 004.21-1.42v-8a2.36 2.36 0 00-2.35-2.34zm-2.36 10.36a1.36 1.36 0 01-2.71 0v-8a1.36 1.36 0 012.71 0zm3.71 0a1.36 1.36 0 01-2.71 0v-8a1.36 1.36 0 012.71 0z" fill="#fff"/><path class="cls-2" d="M29.18 36.31h48.79v9.23H29.18z"/><circle class="cls-3" cx="41.54" cy="56.6" r="1.43"/></g></g></svg>