<svg xmlns="http://www.w3.org/2000/svg" viewBox="0 0 114.17 114.17"><g fill="none" fill-rule="evenodd"><g fill-rule="nonzero"><circle fill="transparent" cx="57.09" cy="57.09" r="57.09"/><path fill="#C5E3EA" d="M17.53 53.21h78.09v19.38H17.53z"/><path d="M10.38 77.08a.51.51 0 01-.45-.71l10.8-23.92a.51.51 0 01.66-.25.49.49 0 01.25.66l-10.8 23.92a.5.5 0 01-.46.3z" fill="#003B57"/><path d="M18 78.77h-.1a.49.49 0 01-.43-.56l3.22-25.61a.51.51 0 01.56-.43.49.49 0 01.43.56l-3.22 25.6a.5.5 0 01-.46.44z" fill="#003B57"/><path d="M102.64 77.08a.49.49 0 01-.46-.3l-10.8-23.92a.49.49 0 01.25-.66.51.51 0 01.66.25l10.8 23.92a.5.5 0 01-.25.66.531.531 0 01-.2.05z" fill="#003B57"/><path d="M95.11 78.39a.49.49 0 01-.49-.43l-3.28-25.24a.49.49 0 01.43-.56.51.51 0 01.56.43l3.28 25.24a.51.51 0 01-.43.56h-.07z" fill="#003B57"/><path d="M26.75 60a3.18 3.18 0 00-3.18 3.18v4.52h6.37v-4.49A3.18 3.18 0 0026.75 60z" fill="#01B4C0"/><path d="M38 60a3.18 3.18 0 00-3.18 3.18v4.52h6.37v-4.49A3.18 3.18 0 0038 60z" fill="#01B4C0"/><path d="M74.55 60a3.18 3.18 0 00-3.18 3.18v4.52h6.37v-4.49A3.18 3.18 0 0074.55 60z" fill="#01B4C0"/><path d="M85.79 60a3.18 3.18 0 00-3.18 3.18v4.52H89v-4.49A3.18 3.18 0 0085.79 60z" fill="#01B4C0"/><path d="M62.934 62.188c0-.034 0-.067-.005-.1-.005-.03 0-.042 0-.065l-.009-.09-.008-.068c0-.03-.008-.059-.013-.093l-.01-.062c-.009-.049-.018-.1-.028-.144l-.016-.063a1.472 1.472 0 00-.021-.087l-.02-.073-.023-.076-.024-.075-.024-.058-.033-.09-.03-.073a3.089 3.089 0 00-.057-.132l-.03-.065-.039-.077-.031-.06-.043-.077-.036-.061-.044-.073-.032-.048c-.033-.052-.068-.1-.1-.152l-.03-.042-.065-.083-.032-.04a1.42 1.42 0 00-.06-.071l-.041-.047a2.146 2.146 0 00-.064-.07l-.041-.042c-.047-.049-.095-.1-.145-.142l-.015-.014-.011-.01-.008-.007a3.726 3.726 0 00-2.477-.948h-.02a3.646 3.646 0 00-2.143.711 3.48 3.48 0 00-.783.81 3.45 3.45 0 00-.782-.81 3.665 3.665 0 00-4.436.076 3.594 3.594 0 00-1.071 4.271c1 2.125 4.174 3.87 5.493 4.513.445.22.74.346.782.364v.015l.019-.009.02.009v-.015c.031-.014.327-.14.782-.364a19.281 19.281 0 003.451-2.143c.42-.334.814-.701 1.174-1.099l.01-.01.13-.153.013-.014.1-.12.03-.037.083-.11.028-.037c.034-.046.067-.092.1-.145.033-.052.065-.1.1-.146l.027-.042.063-.1.03-.052.057-.1.025-.047a4.19 4.19 0 00.142-.302l.019-.048.04-.107.019-.056c.012-.035.024-.07.034-.106l.016-.052c.013-.043.024-.088.035-.131l.006-.025c.012-.052.023-.1.033-.156l.008-.05.017-.109.008-.06c0-.033.007-.067.01-.098v-.06c0-.038.005-.074.007-.112v-.199l-.011-.067z" fill="#013B57"/><path d="M17.53 53.21l16.6-21.72a2.94 2.94 0 013.53-.91A44.36 44.36 0 0073 30.32a3.19 3.19 0 013.7.8l18.93 22.09h-78.1z" fill="#01B4C0"/><circle fill="#003B57" cx="36.18" cy="29.02" r="1.6"/><circle fill="#003B57" cx="74.61" cy="29.02" r="1.6"/></g></g></svg>