<svg version="1.1" id="Layer_1" xmlns="http://www.w3.org/2000/svg" x="0" y="0" viewBox="0 0 114.2 114.2" xml:space="preserve"><style>.st3{fill:#003b57}.st5{fill:#c5e3ea}</style><circle cx="57.1" cy="57.1" r="57.1" fill="transparent"/><path d="M78.1 78.4v-21c0-.3.3-.3.6-.3l19-3.4c.3 0 .6 0 .6.3v27.7c0 .3-.3.6-.6.6l-19-3.4c-.3.1-.6-.2-.6-.5z" fill-rule="evenodd" clip-rule="evenodd" fill="#179caa"/><path d="M31.1 48.2h41.3c3.4 0 6.2 2.8 6.2 6.2v27.4c0 3.4-2.8 6.2-6.2 6.2H31.1c-3.4 0-6.2-2.8-6.2-6.2V54.4c.1-3.4 2.8-6.2 6.2-6.2z" fill-rule="evenodd" clip-rule="evenodd" fill="#01b4c0"/><g><circle class="st3" cx="65.1" cy="40.4" r="7.7"/><path d="M37.9 22.5c-7.1 0-12.9 5.8-12.9 12.9.1 7.2 6 12.8 13.2 12.7 7-.1 12.6-5.7 12.7-12.7-.1-7.1-5.8-12.8-13-12.9zm-1.2 7.1c-.7.1-1.3.3-1.8.6l-2.8-2.5c1.3-1.1 2.9-1.8 4.6-1.9v3.8zM33 32.1c-.4.7-.7 1.4-.9 2.2h-3.7c.2-1.7.9-3.3 1.8-4.6l2.8 2.4zm-.9 4.6l.9 1.9-2.8 2.8c-.9-1.4-1.5-3-1.8-4.6l3.7-.1zm2.7 3.7c.6.3 1.2.6 1.8.6v4c-1.7-.2-3.3-.9-4.6-1.8l2.8-2.8zm4.4.6c.7 0 1.3-.2 1.8-.6l2.8 2.8c-1.4 1-3 1.6-4.6 1.8v-4zm3.7-2.4c.6-.6.6-1.2.9-1.8h3.7c-.3 1.6-1 3.2-1.8 4.6l-2.8-2.8zm.9-4.4c-.3-.9-.3-1.5-.9-2.2l2.8-2.5c1 1.4 1.6 3 1.8 4.6h-3.7zm-2.8-4c-.5-.4-1.2-.7-1.8-.6v-3.7c1.7.1 3.3.7 4.6 1.9L41 30.2z" fill-rule="evenodd" clip-rule="evenodd" fill="#003b57"/><path class="st3" d="M62.9 75.6H36c-1.4 0-2.5 1.1-2.5 2.5V88h31.3V77.4c0-1-.9-1.8-1.9-1.8z"/><path class="st3" d="M25 64.4V59l-3.8-2.2v9.8l3.8-2.2z"/></g><path class="st5" d="M55.7 54.4c-.4.1-.7.4-.7.8 0 .3.3.6.7.7h15.9c.4-.1.7-.4.7-.8 0-.3-.3-.6-.7-.7H55.7z"/><path class="st5" d="M71.6 60.5c.4-.1.7-.4.7-.8 0-.3-.3-.6-.7-.7H55.7c-.4.1-.7.4-.6.9 0 .3.3.6.6.6h15.9z"/><path class="st5" d="M32.1 54.4h16.7c1.1 0 2 .9 2 2V64c0 1.1-.9 2-2 2H32.1c-1.1 0-2-.9-2-2v-7.7c0-1 .9-1.9 2-1.9z"/></svg>