<svg xmlns="http://www.w3.org/2000/svg" viewBox="0 0 114.17 114.17"><defs><clipPath id="clip-path"><path d="M91.53 57.91h-1.85V46.84a5.25 5.25 0 00-5.25-5.25H72.62V31.15a5.51 5.51 0 00-5.51-5.51H46.77a5.51 5.51 0 00-5.51 5.51v10.44h-10.9a6.17 6.17 0 00-6.17 6.17v10.15h-.68a7.75 7.75 0 00-7.76 7.76V79.3h82.38V64.51a6.6 6.6 0 00-6.6-6.6z" fill="none"/></clipPath><style>.cls-3{fill:#fcd6d3}.cls-4{fill:#003b57}.cls-6{fill:#f87e7e}</style></defs><g id="Layer_2" data-name="Layer 2"><g id="Layer_1-2" data-name="Layer 1"><circle cx="57.09" cy="57.09" r="57.09" fill="transparent"/><path class="cls-3" d="M23.51 57.91h68a6.6 6.6 0 016.6 6.6V79.3H15.75V65.67a7.76 7.76 0 017.76-7.76z"/><path class="cls-3" d="M30.36 41.59h54.07a5.25 5.25 0 015.25 5.25V58.6H24.19V47.76a6.17 6.17 0 016.17-6.17z"/><path class="cls-4" d="M64.24 84.3h33.89v-5H15.75v5h33.89a3.92 3.92 0 01-.52 7.81H49v1.51h15.91v-1.51h-.15a3.92 3.92 0 01-.52-7.81z"/><rect class="cls-3" x="41.26" y="25.64" width="31.35" height="22.26" rx="5.51"/><g clip-path="url(#clip-path)"><path class="cls-6" d="M13.62 60.11c5.55 0 5.55 4.32 11.09 4.32s5.55-4.32 11.09-4.32 5.55 4.32 11.1 4.32 5.54-4.32 11.1-4.32 5.55 4.32 11.1 4.32 5.55-4.32 11.09-4.32 5.56 4.32 11.11 4.32 5.55-4.32 11.1-4.32v-2.33H15.75z"/><path class="cls-6" d="M13.62 43.91c5.55 0 5.55 4.32 11.09 4.32s5.55-4.32 11.09-4.32 5.55 4.32 11.1 4.32 5.54-4.32 11.1-4.32 5.55 4.32 11.1 4.32 5.55-4.32 11.09-4.32 5.56 4.32 11.11 4.32 5.55-4.32 11.1-4.32v-2.32H15.75z"/><path class="cls-6" d="M13.62 28c5.55 0 5.55 4.32 11.09 4.32S30.26 28 35.8 28s5.55 4.32 11.1 4.32S52.44 28 58 28s5.55 4.32 11.1 4.32S74.64 28 80.18 28s5.56 4.32 11.11 4.32S96.84 28 102.39 28v-2.36H15.75z"/></g><path class="cls-4" d="M60.72 12.87a3.78 3.78 0 00-2.2.74 3.58 3.58 0 00-.81.84 3.75 3.75 0 00-.8-.84 3.8 3.8 0 00-2.23-.74 3.75 3.75 0 00-3.43 5.25c.88 1.88 4.65 4.36 5.71 5v2.49h.74v-2.46a9 9 0 00.83-.36 18.79 18.79 0 003.36-2.08c1.31-1 2.67-2.41 2.6-4.23a3.79 3.79 0 00-3.77-3.61z"/></g></g></svg>